<svg xmlns="http://www.w3.org/2000/svg" xmlns:xlink="http://www.w3.org/1999/xlink" width="840" height="537.62"><rect width="840" height="537.62" rx="5" ry="5" class="a"/><svg y="0%" x="0%"><circle cx="20" cy="20" r="6" fill="#ff5f58"/><circle cx="40" cy="20" r="6" fill="#ffbd2e"/><circle cx="60" cy="20" r="6" fill="#18c132"/></svg><svg height="477.62" viewBox="0 0 80 47.762" width="800" x="15" xmlns="http://www.w3.org/2000/svg" xmlns:xlink="http://www.w3.org/1999/xlink" y="50"><style>@keyframes n{0%{transform:translateX(0)}.7%{transform:translateX(-160px)}21.1%{transform:translateX(-240px)}23.3%{transform:translateX(-800px)}23.5%{transform:translateX(-960px)}55.5%{transform:translateX(-1040px)}58.7%{transform:translateX(-1360px)}59.3%{transform:translateX(-1440px)}70.2%{transform:translateX(-1520px)}77.6%{transform:translateX(-2000px)}to{transform:translateX(-2080px)}}.a{fill:#282d35}.f,.g{fill:#a8cc8c;font-weight:700;white-space:pre}.g{fill:#66c2cd}.h{fill:#b9c0cb}.i,.j,.k{fill:#282d35;white-space:pre}.j,.k{fill:#b9c0cb}.k{fill:#dbab79;font-weight:700}</style><g font-family="Monaco,Consolas,Menlo,'Bitstream Vera Sans Mono','Powerline Symbols',monospace" font-size="1.67"><defs><symbol id="1"><text y="1.67" class="f">➜</text><text x="3.006" y="1.67" class="g">~</text></symbol><symbol id="2"><text y="1.67" class="f">➜</text><text x="3.006" y="1.67" class="g">~</text><path class="h" d="M5.01 0h75v2.171h-75z"/><text x="5.01" y="1.67" class="i">echo &apos;Ares uses LemmeKnow to identify 300+ different types of plaintext inc</text></symbol><symbol id="3"><text y="1.67" class="j">echo</text><text x="5.01" y="1.67" class="j">&apos;Ares</text><text x="11.022" y="1.67" class="j">uses</text><text x="16.032" y="1.67" class="j">LemmeKnow</text><text x="26.052" y="1.67" class="j">to</text><text x="29.058" y="1.67" class="j">identify</text><text x="38.076" y="1.67" class="j">300+</text><text x="43.086" y="1.67" class="j">different</text><text x="53.106" y="1.67" class="j">types</text><text x="59.118" y="1.67" class="j">of</text><text x="62.124" y="1.67" class="j">plaintext</text><text x="72.144" y="1.67" class="j">include</text></symbol><symbol id="4"><text y="1.67" class="j">API</text><text x="4.008" y="1.67" class="j">keys,</text><text x="10.02" y="1.67" class="j">IP</text><text x="13.026" y="1.67" class="j">addresses,</text><text x="24.048" y="1.67" class="j">and</text><text x="28.056" y="1.67" class="j">URLs.</text><text x="34.068" y="1.67" class="j">This</text><text x="39.078" y="1.67" class="j">is</text><text x="42.084" y="1.67" class="j">3300%</text><text x="48.096" y="1.67" class="j">faster</text><text x="55.11" y="1.67" class="j">than</text><text x="60.12" y="1.67" class="j">PyWhat</text><text x="67.134" y="1.67" class="j">written</text><text x="75.15" y="1.67" class="j">in</text><text x="78.156" y="1.67" class="j">Py</text></symbol><symbol id="5"><text y="1.67" class="j">thon</text><text x="5.01" y="1.67" class="j">for</text><text x="9.018" y="1.67" class="j">Ciphey&apos;</text></symbol><symbol id="6"><text y="1.67" class="j">Ares</text><text x="5.01" y="1.67" class="j">uses</text><text x="10.02" y="1.67" class="j">LemmeKnow</text><text x="20.04" y="1.67" class="j">to</text><text x="23.046" y="1.67" class="j">identify</text><text x="32.064" y="1.67" class="j">300+</text><text x="37.074" y="1.67" class="j">different</text><text x="47.094" y="1.67" class="j">types</text><text x="53.106" y="1.67" class="j">of</text><text x="56.112" y="1.67" class="j">plaintext</text><text x="66.132" y="1.67" class="j">include</text><text x="74.148" y="1.67" class="j">API</text><text x="78.156" y="1.67" class="j">ke</text></symbol><symbol id="7"><text y="1.67" class="j">ys,</text><text x="4.008" y="1.67" class="j">IP</text><text x="7.014" y="1.67" class="j">addresses,</text><text x="18.036" y="1.67" class="j">and</text><text x="22.044" y="1.67" class="j">URLs.</text><text x="28.056" y="1.67" class="j">This</text><text x="33.066" y="1.67" class="j">is</text><text x="36.072" y="1.67" class="j">3300%</text><text x="42.084" y="1.67" class="j">faster</text><text x="49.098" y="1.67" class="j">than</text><text x="54.108" y="1.67" class="j">PyWhat</text><text x="61.122" y="1.67" class="j">written</text><text x="69.138" y="1.67" class="j">in</text><text x="72.144" y="1.67" class="j">Python</text><text x="79.158" y="1.67" class="j">f</text></symbol><symbol id="8"><text y="1.67" class="j">or</text><text x="3.006" y="1.67" class="j">Ciphey</text></symbol><symbol id="9"><text y="1.67" class="f">➜</text><text x="3.006" y="1.67" class="g">~</text><text x="5.01" y="1.67" class="j">ares</text><text x="10.02" y="1.67" class="j">-t</text><text x="13.026" y="1.67" class="j">&apos;7Vqt2YuAvPvTXQTHVLjPvp4BM2ZJpZWYL&apos;</text></symbol><symbol id="10"><text y="1.67" class="j">🕵️</text><text x="4.008" y="1.67" class="j">I</text><text x="6.012" y="1.67" class="j">think</text><text x="12.024" y="1.67" class="j">the</text><text x="16.032" y="1.67" class="j">plaintext</text><text x="26.052" y="1.67" class="j">is</text><text x="29.058" y="1.67" class="k">Internet</text><text x="38.076" y="1.67" class="k">Protocol</text><text x="47.094" y="1.67" class="k">(IP)</text><text x="52.104" y="1.67" class="k">Address</text><text x="60.12" y="1.67" class="k">Version</text><text x="68.136" y="1.67" class="k">4</text><text x="69.138" y="1.67" class="j">.</text></symbol><symbol id="11"><text y="1.67" class="j">Possible</text><text x="9.018" y="1.67" class="j">plaintext:</text><text x="20.04" y="1.67" class="j">&apos;</text><text x="21.042" y="1.67" class="k">192.168.0.1</text><text x="32.064" y="1.67" class="j">&apos;</text><text x="34.068" y="1.67" class="j">(y/N):</text></symbol><symbol id="12"><text y="1.67" class="j">y</text></symbol><symbol id="13"><text y="1.67" class="j">🥳</text><text x="3.006" y="1.67" class="j">Ares</text><text x="8.016" y="1.67" class="j">has</text><text x="12.024" y="1.67" class="j">decoded</text><text x="20.04" y="1.67" class="j">123</text><text x="24.048" y="1.67" class="j">times</text><text x="30.06" y="1.67" class="j">times.</text></symbol><symbol id="14"><text y="1.67" class="j">If</text><text x="3.006" y="1.67" class="j">you</text><text x="7.014" y="1.67" class="j">would</text><text x="13.026" y="1.67" class="j">have</text><text x="18.036" y="1.67" class="j">used</text><text x="23.046" y="1.67" class="j">Ciphey,</text><text x="31.062" y="1.67" class="j">it</text><text x="34.068" y="1.67" class="j">would</text><text x="40.08" y="1.67" class="j">have</text><text x="45.09" y="1.67" class="j">taken</text><text x="51.102" y="1.67" class="j">you</text><text x="55.11" y="1.67" class="j">24</text><text x="58.116" y="1.67" class="j">seconds</text></symbol><symbol id="15"><text y="1.67" class="j">The</text><text x="4.008" y="1.67" class="j">plaintext</text><text x="14.028" y="1.67" class="j">is:</text></symbol><symbol id="16"><text y="1.67" class="k">192.168.0.1</text></symbol><symbol id="17"><text y="1.67" class="j">and</text><text x="4.008" y="1.67" class="j">the</text><text x="8.016" y="1.67" class="j">decoders</text><text x="17.034" y="1.67" class="j">used</text><text x="22.044" y="1.67" class="j">are</text><text x="26.052" y="1.67" class="k">Base58</text><text x="33.066" y="1.67" class="k">Bitcoin</text><text x="41.082" y="1.67" class="k">→</text><text x="43.086" y="1.67" class="k">Base32</text></symbol><symbol id="a"><path fill="transparent" d="M0 0h80v23H0z"/></symbol><symbol id="b"><path fill="#6f7683" d="M0 0h1.102v2.171H0z"/></symbol></defs><path class="a" d="M0 0h80v47.762H0z"/><g style="animation-duration:15.847661s;animation-iteration-count:infinite;animation-name:n;animation-timing-function:steps(1,end)"><svg width="2160"><svg><use xlink:href="#a"/><use xlink:href="#b" x="-.004"/></svg><svg x="80"><use xlink:href="#a"/><use xlink:href="#b" x="4.996"/><use xlink:href="#1"/></svg><svg x="160"><use xlink:href="#a"/><use xlink:href="#b" x="4.996"/><use xlink:href="#1"/></svg><svg x="240"><use xlink:href="#a"/><use xlink:href="#b" x="20.996" y="4.317"/><use xlink:href="#2"/><path class="h" d="M0 2.171h80v2.171H0z"/><text y="3.841" class="i">lude API keys, IP addresses, and URLs. This is 3300% faster than PyWhat written</text><path class="h" d="M0 4.342h21v2.171H0z"/><text y="6.012" class="i">in Python for Ciphey&apos;</text></svg><svg x="320"><use xlink:href="#a"/><use xlink:href="#b" x="9.996" y="6.488"/><use xlink:href="#2"/><use xlink:href="#3" y="2.171"/><use xlink:href="#4" y="4.342"/><text y="8.183" class="j">thon</text><text x="5.01" y="8.183" class="j">for</text><text x="9.018" y="8.183" class="j">C</text></svg><svg x="400"><use xlink:href="#a"/><use xlink:href="#b" x="15.996" y="6.488"/><use xlink:href="#2"/><use xlink:href="#3" y="2.171"/><use xlink:href="#4" y="4.342"/><use xlink:href="#5" y="6.513"/></svg><svg x="480"><use xlink:href="#a"/><use xlink:href="#b" x="15.996" y="6.488"/><use xlink:href="#2"/><use xlink:href="#3" y="2.171"/><use xlink:href="#4" y="4.342"/><use xlink:href="#5" y="6.513"/></svg><svg x="560"><use xlink:href="#a"/><use xlink:href="#b" x="-.004" y="8.659"/><use xlink:href="#2"/><use xlink:href="#3" y="2.171"/><use xlink:href="#4" y="4.342"/><use xlink:href="#5" y="6.513"/></svg><svg x="640"><use xlink:href="#a"/><use xlink:href="#b" x="-.004" y="8.659"/><use xlink:href="#2"/><use xlink:href="#3" y="2.171"/><use xlink:href="#4" y="4.342"/><use xlink:href="#5" y="6.513"/></svg><svg x="720"><use xlink:href="#a"/><use xlink:href="#b" x="-.004" y="15.172"/><use xlink:href="#2"/><use xlink:href="#3" y="2.171"/><use xlink:href="#4" y="4.342"/><use xlink:href="#5" y="6.513"/><use xlink:href="#6" y="8.684"/><use xlink:href="#7" y="10.855"/><use xlink:href="#8" y="13.026"/></svg><svg x="800"><use xlink:href="#a"/><use xlink:href="#b" x="-.004" y="15.172"/><use xlink:href="#2"/><use xlink:href="#3" y="2.171"/><use xlink:href="#4" y="4.342"/><use xlink:href="#5" y="6.513"/><use xlink:href="#6" y="8.684"/><use xlink:href="#7" y="10.855"/><use xlink:href="#8" y="13.026"/></svg><svg x="880"><use xlink:href="#a"/><use xlink:href="#b" x="4.996" y="15.172"/><use xlink:href="#2"/><use xlink:href="#3" y="2.171"/><use xlink:href="#4" y="4.342"/><use xlink:href="#5" y="6.513"/><use xlink:href="#6" y="8.684"/><use xlink:href="#7" y="10.855"/><use xlink:href="#8" y="13.026"/><use xlink:href="#1" y="15.197"/></svg><svg x="960"><use xlink:href="#a"/><use xlink:href="#b" x="4.996" y="15.172"/><use xlink:href="#2"/><use xlink:href="#3" y="2.171"/><use xlink:href="#4" y="4.342"/><use xlink:href="#5" y="6.513"/><use xlink:href="#6" y="8.684"/><use xlink:href="#7" y="10.855"/><use xlink:href="#8" y="13.026"/><use xlink:href="#1" y="15.197"/></svg><svg x="1040"><use xlink:href="#a"/><use xlink:href="#b" x="47.996" y="15.172"/><use xlink:href="#2"/><use xlink:href="#3" y="2.171"/><use xlink:href="#4" y="4.342"/><use xlink:href="#5" y="6.513"/><use xlink:href="#6" y="8.684"/><use xlink:href="#7" y="10.855"/><use xlink:href="#8" y="13.026"/><text y="16.867" class="f">➜</text><text x="3.006" y="16.867" class="g">~</text><path class="h" d="M5.01 15.197h43v2.171h-43z"/><text x="5.01" y="16.867" class="i">ares -t &apos;7Vqt2YuAvPvTXQTHVLjPvp4BM2ZJpZWYL&apos;</text></svg><svg x="1120"><use xlink:href="#a"/><use xlink:href="#b" x="47.996" y="15.172"/><use xlink:href="#2"/><use xlink:href="#3" y="2.171"/><use xlink:href="#4" y="4.342"/><use xlink:href="#5" y="6.513"/><use xlink:href="#6" y="8.684"/><use xlink:href="#7" y="10.855"/><use xlink:href="#8" y="13.026"/><use xlink:href="#9" y="15.197"/></svg><svg x="1200"><use xlink:href="#a"/><use xlink:href="#b" x="47.996" y="15.172"/><use xlink:href="#2"/><use xlink:href="#3" y="2.171"/><use xlink:href="#4" y="4.342"/><use xlink:href="#5" y="6.513"/><use xlink:href="#6" y="8.684"/><use xlink:href="#7" y="10.855"/><use xlink:href="#8" y="13.026"/><use xlink:href="#9" y="15.197"/></svg><svg x="1280"><use xlink:href="#a"/><use xlink:href="#b" x="-.004" y="17.343"/><use xlink:href="#2"/><use xlink:href="#3" y="2.171"/><use xlink:href="#4" y="4.342"/><use xlink:href="#5" y="6.513"/><use xlink:href="#6" y="8.684"/><use xlink:href="#7" y="10.855"/><use xlink:href="#8" y="13.026"/><use xlink:href="#9" y="15.197"/></svg><svg x="1360"><use xlink:href="#a"/><use xlink:href="#b" x="-.004" y="17.343"/><use xlink:href="#2"/><use xlink:href="#3" y="2.171"/><use xlink:href="#4" y="4.342"/><use xlink:href="#5" y="6.513"/><use xlink:href="#6" y="8.684"/><use xlink:href="#7" y="10.855"/><use xlink:href="#8" y="13.026"/><use xlink:href="#9" y="15.197"/></svg><svg x="1440"><use xlink:href="#a"/><use xlink:href="#b" x="-.004" y="21.685"/><use xlink:href="#2"/><use xlink:href="#3" y="2.171"/><use xlink:href="#4" y="4.342"/><use xlink:href="#5" y="6.513"/><use xlink:href="#6" y="8.684"/><use xlink:href="#7" y="10.855"/><use xlink:href="#8" y="13.026"/><use xlink:href="#9" y="15.197"/><use xlink:href="#10" y="17.368"/><use xlink:href="#11" y="19.539"/></svg><svg x="1520"><use xlink:href="#a"/><use xlink:href="#b" x=".996" y="21.685"/><use xlink:href="#2"/><use xlink:href="#3" y="2.171"/><use xlink:href="#4" y="4.342"/><use xlink:href="#5" y="6.513"/><use xlink:href="#6" y="8.684"/><use xlink:href="#7" y="10.855"/><use xlink:href="#8" y="13.026"/><use xlink:href="#9" y="15.197"/><use xlink:href="#10" y="17.368"/><use xlink:href="#11" y="19.539"/><use xlink:href="#12" y="21.71"/></svg><svg x="1600"><use xlink:href="#a"/><use xlink:href="#b" x="-.004" y="23.856"/><use xlink:href="#2"/><use xlink:href="#3" y="2.171"/><use xlink:href="#4" y="4.342"/><use xlink:href="#5" y="6.513"/><use xlink:href="#6" y="8.684"/><use xlink:href="#7" y="10.855"/><use xlink:href="#8" y="13.026"/><use xlink:href="#9" y="15.197"/><use xlink:href="#10" y="17.368"/><use xlink:href="#11" y="19.539"/><use xlink:href="#12" y="21.71"/></svg><svg x="1680"><use xlink:href="#a"/><use xlink:href="#b" x="-.004" y="39.053"/><use xlink:href="#2"/><use xlink:href="#3" y="2.171"/><use xlink:href="#4" y="4.342"/><use xlink:href="#5" y="6.513"/><use xlink:href="#6" y="8.684"/><use xlink:href="#7" y="10.855"/><use xlink:href="#8" y="13.026"/><use xlink:href="#9" y="15.197"/><use xlink:href="#10" y="17.368"/><use xlink:href="#11" y="19.539"/><use xlink:href="#12" y="21.71"/><use xlink:href="#13" y="26.052"/><use xlink:href="#14" y="28.223"/><use xlink:href="#15" y="32.565"/><use xlink:href="#16" y="34.736"/><use xlink:href="#17" y="36.907"/></svg><svg x="1760"><use xlink:href="#a"/><use xlink:href="#b" x="-.004" y="39.053"/><use xlink:href="#2"/><use xlink:href="#3" y="2.171"/><use xlink:href="#4" y="4.342"/><use xlink:href="#5" y="6.513"/><use xlink:href="#6" y="8.684"/><use xlink:href="#7" y="10.855"/><use xlink:href="#8" y="13.026"/><use xlink:href="#9" y="15.197"/><use xlink:href="#10" y="17.368"/><use xlink:href="#11" y="19.539"/><use xlink:href="#12" y="21.71"/><use xlink:href="#13" y="26.052"/><use xlink:href="#14" y="28.223"/><use xlink:href="#15" y="32.565"/><use xlink:href="#16" y="34.736"/><use xlink:href="#17" y="36.907"/></svg><svg x="1840"><use xlink:href="#a"/><use xlink:href="#b" x="4.996" y="39.053"/><use xlink:href="#2"/><use xlink:href="#3" y="2.171"/><use xlink:href="#4" y="4.342"/><use xlink:href="#5" y="6.513"/><use xlink:href="#6" y="8.684"/><use xlink:href="#7" y="10.855"/><use xlink:href="#8" y="13.026"/><use xlink:href="#9" y="15.197"/><use xlink:href="#10" y="17.368"/><use xlink:href="#11" y="19.539"/><use xlink:href="#12" y="21.71"/><use xlink:href="#13" y="26.052"/><use xlink:href="#14" y="28.223"/><use xlink:href="#15" y="32.565"/><use xlink:href="#16" y="34.736"/><use xlink:href="#17" y="36.907"/><use xlink:href="#1" y="39.078"/></svg><svg x="1920"><use xlink:href="#a"/><use xlink:href="#b" x="4.996" y="39.053"/><use xlink:href="#2"/><use xlink:href="#3" y="2.171"/><use xlink:href="#4" y="4.342"/><use xlink:href="#5" y="6.513"/><use xlink:href="#6" y="8.684"/><use xlink:href="#7" y="10.855"/><use xlink:href="#8" y="13.026"/><use xlink:href="#9" y="15.197"/><use xlink:href="#10" y="17.368"/><use xlink:href="#11" y="19.539"/><use xlink:href="#12" y="21.71"/><use xlink:href="#13" y="26.052"/><use xlink:href="#14" y="28.223"/><use xlink:href="#15" y="32.565"/><use xlink:href="#16" y="34.736"/><use xlink:href="#17" y="36.907"/><use xlink:href="#1" y="39.078"/></svg><svg x="2000"><use xlink:href="#a"/><use xlink:href="#b" x="4.996" y="39.053"/><use xlink:href="#2"/><use xlink:href="#3" y="2.171"/><use xlink:href="#4" y="4.342"/><use xlink:href="#5" y="6.513"/><use xlink:href="#6" y="8.684"/><use xlink:href="#7" y="10.855"/><use xlink:href="#8" y="13.026"/><use xlink:href="#9" y="15.197"/><use xlink:href="#10" y="17.368"/><use xlink:href="#11" y="19.539"/><use xlink:href="#12" y="21.71"/><use xlink:href="#13" y="26.052"/><use xlink:href="#14" y="28.223"/><use xlink:href="#15" y="32.565"/><use xlink:href="#16" y="34.736"/><use xlink:href="#17" y="36.907"/><use xlink:href="#1" y="39.078"/></svg><svg x="2080"><use xlink:href="#a"/><use xlink:href="#b" x="-.004" y="41.224"/><use xlink:href="#2"/><use xlink:href="#3" y="2.171"/><use xlink:href="#4" y="4.342"/><use xlink:href="#5" y="6.513"/><use xlink:href="#6" y="8.684"/><use xlink:href="#7" y="10.855"/><use xlink:href="#8" y="13.026"/><use xlink:href="#9" y="15.197"/><use xlink:href="#10" y="17.368"/><use xlink:href="#11" y="19.539"/><use xlink:href="#12" y="21.71"/><use xlink:href="#13" y="26.052"/><use xlink:href="#14" y="28.223"/><use xlink:href="#15" y="32.565"/><use xlink:href="#16" y="34.736"/><use xlink:href="#17" y="36.907"/><use xlink:href="#1" y="39.078"/></svg></svg></g></g></svg></svg>