<svg xmlns="http://www.w3.org/2000/svg" xmlns:xlink="http://www.w3.org/1999/xlink" width="840" height="537.62"><rect width="840" height="537.62" rx="5" ry="5" class="a"/><svg y="0%" x="0%"><circle cx="20" cy="20" r="6" fill="#ff5f58"/><circle cx="40" cy="20" r="6" fill="#ffbd2e"/><circle cx="60" cy="20" r="6" fill="#18c132"/></svg><svg height="477.62" viewBox="0 0 80 47.762" width="800" x="15" xmlns="http://www.w3.org/2000/svg" xmlns:xlink="http://www.w3.org/1999/xlink" y="50"><style>@keyframes n{0%{transform:translateX(0)}2%{transform:translateX(-160px)}17.3%{transform:translateX(-240px)}31.2%{transform:translateX(-320px)}40.7%{transform:translateX(-400px)}40.9%{transform:translateX(-480px)}41.1%{transform:translateX(-720px)}to{transform:translateX(-800px)}}.a{fill:#282d35}.f,.g{fill:#a8cc8c;font-weight:700;white-space:pre}.g{fill:#66c2cd}.h{fill:#b9c0cb}.i,.j,.k{fill:#282d35;white-space:pre}.j,.k{fill:#b9c0cb}.k{fill:#dbab79;font-weight:700}</style><g font-family="Monaco,Consolas,Menlo,'Bitstream Vera Sans Mono','Powerline Symbols',monospace" font-size="1.67"><defs><symbol id="1"><text y="1.67" class="f">➜</text><text x="3.006" y="1.67" class="g">~</text></symbol><symbol id="2"><text y="1.67" class="f">➜</text><text x="3.006" y="1.67" class="g">~</text><path class="h" d="M5.01 0h75v2.171h-75z"/><text x="5.01" y="1.67" class="i">ares -t &apos;LJIVE222KFJGUWSRJZ2FUUKSNNNFCTTLLJIVE5C2KFJGWWSRKJVVUUKOORNFCUTLLJ</text></symbol><symbol id="3"><path class="h" d="M0 0h80v2.171H0z"/><text y="1.67" class="i">IVE222KFHHIWSRKJVVUUKSNNNEOUTULJIU4222KFJGWWSRJZ2FUUKONNNFCTTKLJIU45C2KFJGWWSHJZ</text></symbol><symbol id="4"><path class="h" d="M0 0h80v2.171H0z"/><text y="1.67" class="i">VVUR2SORNFCUTLLJIVE222I5JHIWSRKJVVUR2ONJNEOTTULJIVE222KFJGWWSRJZ2FUUKSNNNFCTTLLJ</text></symbol><symbol id="5"><path class="h" d="M0 0h34v2.171H0z"/><text y="1.67" class="i">IU45C2KFHGWWSRJZVFUUKSHU======&apos; -d</text></symbol><symbol id="6"><text y="1.67" class="j">🥳</text><text x="3.006" y="1.67" class="j">Ares</text><text x="8.016" y="1.67" class="j">has</text><text x="12.024" y="1.67" class="j">decoded</text><text x="20.04" y="1.67" class="j">205</text><text x="24.048" y="1.67" class="j">times</text><text x="30.06" y="1.67" class="j">times.</text></symbol><symbol id="7"><text y="1.67" class="j">If</text><text x="3.006" y="1.67" class="j">you</text><text x="7.014" y="1.67" class="j">would</text><text x="13.026" y="1.67" class="j">have</text><text x="18.036" y="1.67" class="j">used</text><text x="23.046" y="1.67" class="j">Ciphey,</text><text x="31.062" y="1.67" class="j">it</text><text x="34.068" y="1.67" class="j">would</text><text x="40.08" y="1.67" class="j">have</text><text x="45.09" y="1.67" class="j">taken</text><text x="51.102" y="1.67" class="j">you</text><text x="55.11" y="1.67" class="j">41</text><text x="58.116" y="1.67" class="j">seconds</text></symbol><symbol id="8"><text y="1.67" class="j">The</text><text x="4.008" y="1.67" class="j">plaintext</text><text x="14.028" y="1.67" class="j">is:</text></symbol><symbol id="9"><text y="1.67" class="k">hello,</text><text x="7.014" y="1.67" class="k">world!</text></symbol><symbol id="10"><text y="1.67" class="j">and</text><text x="4.008" y="1.67" class="j">the</text><text x="8.016" y="1.67" class="j">decoders</text><text x="17.034" y="1.67" class="j">used</text><text x="22.044" y="1.67" class="j">are</text><text x="26.052" y="1.67" class="k">Base32</text><text x="33.066" y="1.67" class="k">→</text><text x="35.07" y="1.67" class="k">Caesar</text><text x="42.084" y="1.67" class="k">Cipher</text><text x="49.098" y="1.67" class="k">→</text><text x="51.102" y="1.67" class="k">Base64</text><text x="58.116" y="1.67" class="k">→</text><text x="60.12" y="1.67" class="k">Binary</text></symbol><symbol id="a"><path fill="transparent" d="M0 0h80v23H0z"/></symbol><symbol id="b"><path fill="#6f7683" d="M0 0h1.102v2.171H0z"/></symbol></defs><path class="a" d="M0 0h80v47.762H0z"/><g style="animation-duration:5.440228s;animation-iteration-count:infinite;animation-name:n;animation-timing-function:steps(1,end)"><svg width="880"><svg><use xlink:href="#a"/><use xlink:href="#b" x="-.004"/></svg><svg x="80"><use xlink:href="#a"/><use xlink:href="#b" x="4.996"/><use xlink:href="#1"/></svg><svg x="160"><use xlink:href="#a"/><use xlink:href="#b" x="4.996"/><use xlink:href="#1"/></svg><svg x="240"><use xlink:href="#a"/><use xlink:href="#b" x="33.996" y="6.488"/><use xlink:href="#2"/><use xlink:href="#3" y="2.171"/><use xlink:href="#4" y="4.342"/><use xlink:href="#5" y="6.513"/></svg><svg x="320"><use xlink:href="#a"/><use xlink:href="#b" x="-.004" y="8.659"/><use xlink:href="#2"/><use xlink:href="#3" y="2.171"/><use xlink:href="#4" y="4.342"/><use xlink:href="#5" y="6.513"/></svg><svg x="400"><use xlink:href="#a"/><use xlink:href="#b" x="-.004" y="17.343"/><use xlink:href="#2"/><use xlink:href="#3" y="2.171"/><use xlink:href="#4" y="4.342"/><use xlink:href="#5" y="6.513"/><use xlink:href="#6" y="10.855"/><use xlink:href="#7" y="13.026"/></svg><svg x="480"><use xlink:href="#a"/><use xlink:href="#b" x="-.004" y="23.856"/><use xlink:href="#2"/><use xlink:href="#3" y="2.171"/><use xlink:href="#4" y="4.342"/><use xlink:href="#5" y="6.513"/><use xlink:href="#6" y="10.855"/><use xlink:href="#7" y="13.026"/><use xlink:href="#8" y="17.368"/><use xlink:href="#9" y="19.539"/><use xlink:href="#10" y="21.71"/></svg><svg x="560"><use xlink:href="#a"/><use xlink:href="#b" x="4.996" y="23.856"/><use xlink:href="#2"/><use xlink:href="#3" y="2.171"/><use xlink:href="#4" y="4.342"/><use xlink:href="#5" y="6.513"/><use xlink:href="#6" y="10.855"/><use xlink:href="#7" y="13.026"/><use xlink:href="#8" y="17.368"/><use xlink:href="#9" y="19.539"/><use xlink:href="#10" y="21.71"/><use xlink:href="#1" y="23.881"/></svg><svg x="640"><use xlink:href="#a"/><use xlink:href="#b" x="4.996" y="23.856"/><use xlink:href="#2"/><use xlink:href="#3" y="2.171"/><use xlink:href="#4" y="4.342"/><use xlink:href="#5" y="6.513"/><use xlink:href="#6" y="10.855"/><use xlink:href="#7" y="13.026"/><use xlink:href="#8" y="17.368"/><use xlink:href="#9" y="19.539"/><use xlink:href="#10" y="21.71"/><use xlink:href="#1" y="23.881"/></svg><svg x="720"><use xlink:href="#a"/><use xlink:href="#b" x="4.996" y="23.856"/><use xlink:href="#2"/><use xlink:href="#3" y="2.171"/><use xlink:href="#4" y="4.342"/><use xlink:href="#5" y="6.513"/><use xlink:href="#6" y="10.855"/><use xlink:href="#7" y="13.026"/><use xlink:href="#8" y="17.368"/><use xlink:href="#9" y="19.539"/><use xlink:href="#10" y="21.71"/><use xlink:href="#1" y="23.881"/></svg><svg x="800"><use xlink:href="#a"/><use xlink:href="#b" x="-.004" y="26.027"/><use xlink:href="#2"/><use xlink:href="#3" y="2.171"/><use xlink:href="#4" y="4.342"/><use xlink:href="#5" y="6.513"/><use xlink:href="#6" y="10.855"/><use xlink:href="#7" y="13.026"/><use xlink:href="#8" y="17.368"/><use xlink:href="#9" y="19.539"/><use xlink:href="#10" y="21.71"/><use xlink:href="#1" y="23.881"/></svg></svg></g></g></svg></svg>